<svg width="80" height="91" viewBox="0 0 80 91" fill="none" xmlns="http://www.w3.org/2000/svg">
    <path d="M78.9423 22.5L59.4567 33.75L54.5853 36.5625L49.7139 39.375L39.9711 45M78.9423 22.5V33.75V39.375V45V56.25V62.3038C78.9423 65.5192 77.2269 68.4904 74.4423 70.0981L69.1995 73.125L59.4567 78.75L57.021 80.1562L54.5853 81.5625L49.7139 84.375L39.9711 90M78.9423 22.5L69.1995 16.875V16.875C67.6923 16.0048 65.8353 16.0048 64.3281 16.875L52.1496 23.9062M39.9711 90L30.2284 84.375V84.375C28.7211 83.5048 27.7927 81.8966 27.7927 80.1562V66.0937M39.9711 90V45M1 22.5V62.3038C1 65.5192 2.71539 68.4904 5.5 70.0981L10.7428 73.125L13.1785 74.5312M1 22.5L13.1785 29.5312M1 22.5L20.4856 11.25L35.4711 2.59808C38.2558 0.990381 41.6865 0.990381 44.4711 2.59808L49.7139 5.625L52.1496 7.03125M13.1785 74.5312V63.2812V63.2812C13.1785 60.7812 15.8848 59.2187 18.0499 60.4687L27.7927 66.0937M13.1785 74.5312L27.7927 66.0937M27.7927 37.9687V49.2187V49.2187C27.7927 51.7187 25.0863 53.2812 22.9213 52.0312L13.1785 46.4062M27.7927 37.9687L39.9711 45M27.7927 37.9687C23.1522 40.9146 13.7326 46.7262 13.1785 46.4062M27.7927 37.9687L20.4856 33.75L13.1785 29.5312M13.1785 29.5312V40.7812V46.4062M52.1496 7.03125L32.6641 18.2812V18.2812C30.499 19.5312 30.499 22.6562 32.6641 23.9062L38.7533 27.4219C41.0141 28.7272 43.7996 28.7272 46.0604 27.4219L47.2782 26.7187L52.1496 23.9062M52.1496 7.03125V23.9062"
          stroke="#D0BCFF" stroke-width="1.8" stroke-linejoin="round"/>
    <mask id="path-2-inside-1_19_85" fill="white">
        <path fill-rule="evenodd" clip-rule="evenodd"
              d="M54.1568 67.3048C53.1312 65.5507 53.7218 63.2973 55.476 62.2717L65.2028 56.5847C66.9569 55.5592 69.2103 56.1498 70.2359 57.9039C71.2615 59.6581 70.6709 61.9115 68.9167 62.9371L59.1899 68.624C57.4358 69.6496 55.1824 69.059 54.1568 67.3048ZM59.7561 64.0316C60.3258 65.0061 59.8771 66.3284 58.7538 66.9852C57.6306 67.6419 56.2581 67.3843 55.6883 66.4098C55.1186 65.4353 55.5673 64.1129 56.6906 63.4562C57.8138 62.7995 59.1863 63.0571 59.7561 64.0316ZM61.3032 60.76C60.3287 61.3297 60.0006 62.5816 60.5703 63.5561C61.1401 64.5306 62.392 64.8587 63.3665 64.289L67.9729 61.5957C68.9474 61.026 69.2755 59.7741 68.7058 58.7996C68.136 57.8251 66.8842 57.497 65.9097 58.0667L61.3032 60.76Z"/>
    </mask>
    <path fill-rule="evenodd" clip-rule="evenodd"
          d="M54.1568 67.3048C53.1312 65.5507 53.7218 63.2973 55.476 62.2717L65.2028 56.5847C66.9569 55.5592 69.2103 56.1498 70.2359 57.9039C71.2615 59.6581 70.6709 61.9115 68.9167 62.9371L59.1899 68.624C57.4358 69.6496 55.1824 69.059 54.1568 67.3048ZM59.7561 64.0316C60.3258 65.0061 59.8771 66.3284 58.7538 66.9852C57.6306 67.6419 56.2581 67.3843 55.6883 66.4098C55.1186 65.4353 55.5673 64.1129 56.6906 63.4562C57.8138 62.7995 59.1863 63.0571 59.7561 64.0316ZM61.3032 60.76C60.3287 61.3297 60.0006 62.5816 60.5703 63.5561C61.1401 64.5306 62.392 64.8587 63.3665 64.289L67.9729 61.5957C68.9474 61.026 69.2755 59.7741 68.7058 58.7996C68.136 57.8251 66.8842 57.497 65.9097 58.0667L61.3032 60.76Z"
          fill="#D0BCFF"/>
    <path d="M55.0217 61.4947C52.8385 62.7712 52.1034 65.5758 53.3798 67.7591L54.9337 66.8506C54.159 65.5255 54.6052 63.8233 55.9302 63.0486L55.0217 61.4947ZM64.7485 55.8078L55.0217 61.4947L55.9302 63.0486L65.657 57.3617L64.7485 55.8078ZM71.0129 57.4497C69.7364 55.2664 66.9318 54.5313 64.7485 55.8078L65.657 57.3617C66.9821 56.587 68.6843 57.0331 69.459 58.3582L71.0129 57.4497ZM69.371 63.714C71.5542 62.4375 72.2893 59.6329 71.0129 57.4497L69.459 58.3582C70.2337 59.6832 69.7875 61.3854 68.4625 62.1601L69.371 63.714ZM59.6442 69.4009L69.371 63.714L68.4625 62.1601L58.7357 67.847L59.6442 69.4009ZM53.3798 67.7591C54.6563 69.9423 57.461 70.6774 59.6442 69.4009L58.7357 67.847C57.4106 68.6217 55.7085 68.1756 54.9337 66.8506L53.3798 67.7591ZM59.2081 67.7621C60.6532 66.9173 61.4121 65.0809 60.533 63.5773L58.9791 64.4858C59.2395 64.9313 59.1011 65.7396 58.2996 66.2082L59.2081 67.7621ZM54.9114 66.8641C55.7905 68.3676 57.763 68.607 59.2081 67.7621L58.2996 66.2082C57.4981 66.6768 56.7257 66.401 56.4653 65.9556L54.9114 66.8641ZM56.2363 62.6793C54.7913 63.5241 54.0323 65.3605 54.9114 66.8641L56.4653 65.9556C56.2049 65.5101 56.3433 64.7018 57.1448 64.2332L56.2363 62.6793ZM60.533 63.5773C59.6539 62.0737 57.6814 61.8344 56.2363 62.6793L57.1448 64.2332C57.9463 63.7646 58.7187 64.0404 58.9791 64.4858L60.533 63.5773ZM61.3473 63.1019C61.0284 62.5565 61.212 61.8558 61.7574 61.5369L60.8489 59.983C59.4453 60.8037 58.9727 62.6068 59.7934 64.0104L61.3473 63.1019ZM62.9122 63.512C62.3668 63.8309 61.6662 63.6473 61.3473 63.1019L59.7934 64.0104C60.614 65.414 62.4171 65.8865 63.8207 65.0659L62.9122 63.512ZM67.5187 60.8188L62.9122 63.512L63.8207 65.0659L68.4272 62.3727L67.5187 60.8188ZM67.9288 59.2539C68.2477 59.7993 68.0641 60.4999 67.5187 60.8188L68.4272 62.3727C69.8308 61.552 70.3034 59.7489 69.4827 58.3453L67.9288 59.2539ZM66.3639 58.8437C66.9093 58.5248 67.61 58.7085 67.9288 59.2539L69.4827 58.3453C68.6621 56.9417 66.859 56.4692 65.4554 57.2898L66.3639 58.8437ZM61.7574 61.5369L66.3639 58.8437L65.4554 57.2898L60.8489 59.983L61.7574 61.5369Z"
          fill="#D0BCFF" mask="url(#path-2-inside-1_19_85)"/>
    <mask id="path-4-inside-2_19_85" fill="white">
        <path fill-rule="evenodd" clip-rule="evenodd"
              d="M54.1851 56.6809C53.159 54.9259 53.7499 52.6714 55.5049 51.6453L65.2323 45.958C66.9873 44.9319 69.2418 45.5228 70.2679 47.2778C71.294 49.0328 70.7031 51.2873 68.9481 52.3134L59.2207 58.0007C57.4657 59.0268 55.2111 58.4359 54.1851 56.6809ZM59.7841 53.4069C60.3542 54.3819 59.9055 55.7048 58.7819 56.3617C57.6584 57.0186 56.2855 56.7607 55.7155 55.7857C55.1454 54.8107 55.5941 53.4878 56.7177 52.8309C57.8412 52.1741 59.2141 52.4319 59.7841 53.4069ZM61.3309 50.1337C60.3559 50.7038 60.0276 51.9563 60.5977 52.9312C61.1677 53.9062 62.4202 54.2345 63.3952 53.6644L68.0018 50.9711C68.9768 50.4011 69.305 49.1486 68.735 48.1736C68.165 47.1986 66.9125 46.8704 65.9375 47.4404L61.3309 50.1337Z"/>
    </mask>
    <path fill-rule="evenodd" clip-rule="evenodd"
          d="M54.1851 56.6809C53.159 54.9259 53.7499 52.6714 55.5049 51.6453L65.2323 45.958C66.9873 44.9319 69.2418 45.5228 70.2679 47.2778C71.294 49.0328 70.7031 51.2873 68.9481 52.3134L59.2207 58.0007C57.4657 59.0268 55.2111 58.4359 54.1851 56.6809ZM59.7841 53.4069C60.3542 54.3819 59.9055 55.7048 58.7819 56.3617C57.6584 57.0186 56.2855 56.7607 55.7155 55.7857C55.1454 54.8107 55.5941 53.4878 56.7177 52.8309C57.8412 52.1741 59.2141 52.4319 59.7841 53.4069ZM61.3309 50.1337C60.3559 50.7038 60.0276 51.9563 60.5977 52.9312C61.1677 53.9062 62.4202 54.2345 63.3952 53.6644L68.0018 50.9711C68.9768 50.4011 69.305 49.1486 68.735 48.1736C68.165 47.1986 66.9125 46.8704 65.9375 47.4404L61.3309 50.1337Z"
          fill="#D0BCFF"/>
    <path d="M55.5049 51.6453L55.0506 50.8683L55.5049 51.6453ZM65.2323 45.958L65.6865 46.7349L65.2323 45.958ZM55.0506 50.8683C52.8665 52.1453 52.1311 54.951 53.4081 57.1352L54.962 56.2266C54.1868 54.9007 54.6332 53.1974 55.9591 52.4222L55.0506 50.8683ZM64.778 45.181L55.0506 50.8683L55.9591 52.4222L65.6865 46.7349L64.778 45.181ZM71.0449 46.8235C69.7679 44.6394 66.9621 43.9041 64.778 45.181L65.6865 46.7349C67.0125 45.9597 68.7158 46.4061 69.491 47.7321L71.0449 46.8235ZM69.4024 53.0904C71.5865 51.8134 72.3218 49.0077 71.0449 46.8235L69.491 47.7321C70.2662 49.058 69.8198 50.7613 68.4938 51.5365L69.4024 53.0904ZM59.6749 58.7777L69.4024 53.0904L68.4938 51.5365L58.7664 57.2238L59.6749 58.7777ZM53.4081 57.1352C54.6851 59.3193 57.4908 60.0546 59.6749 58.7777L58.7664 57.2238C57.4405 57.999 55.7372 57.5526 54.962 56.2266L53.4081 57.1352ZM59.2362 57.1386C60.6817 56.2935 61.4403 54.4565 60.5611 52.9526L59.0072 53.8612C59.268 54.3072 59.1292 55.1161 58.3277 55.5847L59.2362 57.1386ZM54.9385 56.24C55.8178 57.7438 57.7907 57.9838 59.2362 57.1386L58.3277 55.5847C57.5261 56.0533 56.7532 55.7775 56.4924 55.3315L54.9385 56.24ZM56.2634 52.054C54.8179 52.8991 54.0593 54.7361 54.9385 56.24L56.4924 55.3315C56.2316 54.8854 56.3704 54.0765 57.1719 53.6079L56.2634 52.054ZM60.5611 52.9526C59.6818 51.4488 57.7089 51.2089 56.2634 52.054L57.1719 53.6079C57.9735 53.1393 58.7464 53.4151 59.0072 53.8612L60.5611 52.9526ZM61.3746 52.477C61.0555 51.9311 61.2393 51.2298 61.7851 50.9107L60.8766 49.3568C59.4725 50.1777 58.9998 51.9814 59.8207 53.3855L61.3746 52.477ZM62.9409 52.8875C62.395 53.2067 61.6938 53.0229 61.3746 52.477L59.8207 53.3855C60.6416 54.7896 62.4453 55.2623 63.8494 54.4414L62.9409 52.8875ZM67.5475 50.1942L62.9409 52.8875L63.8494 54.4414L68.4561 51.7481L67.5475 50.1942ZM67.9581 48.6279C68.2772 49.1737 68.0934 49.875 67.5475 50.1942L68.4561 51.7481C69.8601 50.9271 70.3329 49.1234 69.512 47.7194L67.9581 48.6279ZM66.3918 48.2173C66.9376 47.8982 67.6389 48.082 67.9581 48.6279L69.512 47.7194C68.691 46.3153 66.8873 45.8425 65.4832 46.6634L66.3918 48.2173ZM61.7851 50.9107L66.3918 48.2173L65.4832 46.6634L60.8766 49.3568L61.7851 50.9107Z"
          fill="#D0BCFF" mask="url(#path-4-inside-2_19_85)"/>
</svg>
